<?xml version="1.0" encoding="UTF-8" standalone="no"?>
<!-- Created with Inkscape (http://www.inkscape.org/) -->

<svg
   xmlns:dc="http://purl.org/dc/elements/1.1/"
   xmlns:cc="http://creativecommons.org/ns#"
   xmlns:rdf="http://www.w3.org/1999/02/22-rdf-syntax-ns#"
   xmlns:svg="http://www.w3.org/2000/svg"
   xmlns="http://www.w3.org/2000/svg"
   xmlns:sodipodi="http://sodipodi.sourceforge.net/DTD/sodipodi-0.dtd"
   xmlns:inkscape="http://www.inkscape.org/namespaces/inkscape"
   id="svg2"
   version="1.1"
   inkscape:version="0.91 r13725"
   xml:space="preserve"
   width="2560"
   height="2560"
   viewBox="0 0 2560 2560"
   sodipodi:docname="brand-icon.svg"><metadata
     id="metadata8"><rdf:RDF><cc:Work
         rdf:about=""><dc:format>image/svg+xml</dc:format><dc:type
           rdf:resource="http://purl.org/dc/dcmitype/StillImage" /><dc:title></dc:title></cc:Work></rdf:RDF></metadata><defs
     id="defs6"><clipPath
       clipPathUnits="userSpaceOnUse"
       id="clipPath16"><path
         d="m 0,2048 2048,0 L 2048,0 0,0 0,2048 Z"
         id="path18"
         inkscape:connector-curvature="0" /></clipPath></defs><sodipodi:namedview
     pagecolor="#ffffff"
     bordercolor="#666666"
     borderopacity="1"
     objecttolerance="10"
     gridtolerance="10"
     guidetolerance="10"
     inkscape:pageopacity="0"
     inkscape:pageshadow="2"
     inkscape:window-width="708"
     inkscape:window-height="480"
     id="namedview4"
     showgrid="false"
     inkscape:zoom="0.0921875"
     inkscape:cx="1280"
     inkscape:cy="1280"
     inkscape:window-x="834"
     inkscape:window-y="280"
     inkscape:window-maximized="0"
     inkscape:current-layer="g10" /><g
     id="g10"
     inkscape:groupmode="layer"
     inkscape:label="iCarey-Computer-Icon"
     transform="matrix(1.25,0,0,-1.25,0,2560)"><g
       id="g12"><g
         id="g14"
         clip-path="url(#clipPath16)"><g
           id="g20"
           transform="translate(1665.7198,125.5674)"><path
             d="m 0,0 -1283.44,0 c -141.778,0 -256.712,114.934 -256.712,256.713 l 0,1283.439 c 0,141.779 114.934,256.713 256.712,256.713 l 1283.44,0 c 141.779,0 256.713,-114.934 256.713,-256.713 l 0,-1283.439 C 256.713,114.934 141.779,0 0,0"
             style="fill:#d37d28;fill-opacity:1;fill-rule:nonzero;stroke:none"
             id="path22"
             inkscape:connector-curvature="0" /></g><g
           id="g24"
           transform="translate(1665.7198,125.5674)"><path
             d="m 0,0 -1283.44,0 c -141.778,0 -256.712,114.934 -256.712,256.713 l 0,1283.439 c 0,141.779 114.934,256.713 256.712,256.713 l 1283.44,0 c 141.779,0 256.713,-114.934 256.713,-256.713 l 0,-1283.439 C 256.713,114.934 141.779,0 0,0 Z"
             style="fill:none;stroke:#231f20;stroke-width:30;stroke-linecap:butt;stroke-linejoin:miter;stroke-miterlimit:10;stroke-dasharray:none;stroke-opacity:1"
             id="path26"
             inkscape:connector-curvature="0" /></g><path
           d="m 638.785,1361.063 -288.911,0 0,96.304 288.911,0 0,-96.304 z m 0,-192.607 -288.911,0 0,96.304 288.911,0 0,-96.304 z M 398.025,590.633 c -26.616,0 -48.152,21.536 -48.152,48.152 0,26.616 21.536,48.152 48.152,48.152 26.616,0 48.152,-21.536 48.152,-48.152 0,-26.616 -21.536,-48.152 -48.152,-48.152 m 240.76,963.038 -288.912,0 c -53.229,0 -96.304,-43.168 -96.304,-96.304 l 0,-1059.342 c 0,-53.232 43.075,-96.304 96.304,-96.304 l 288.912,0 c 53.232,0 96.304,43.075 96.304,96.304 l 0,1059.342 c 0,53.136 -43.072,96.304 -96.304,96.304"
           style="fill:#ffffff;fill-opacity:1;fill-rule:nonzero;stroke:none"
           id="path28"
           inkscape:connector-curvature="0" /><path
           d="m 638.785,1361.063 -288.911,0 0,96.304 288.911,0 0,-96.304 z m 0,-192.607 -288.911,0 0,96.304 288.911,0 0,-96.304 z M 398.025,590.633 c -26.616,0 -48.152,21.536 -48.152,48.152 0,26.616 21.536,48.152 48.152,48.152 26.616,0 48.152,-21.536 48.152,-48.152 0,-26.616 -21.536,-48.152 -48.152,-48.152 z m 240.76,963.038 -288.912,0 c -53.229,0 -96.304,-43.168 -96.304,-96.304 l 0,-1059.342 c 0,-53.232 43.075,-96.304 96.304,-96.304 l 288.912,0 c 53.232,0 96.304,43.075 96.304,96.304 l 0,1059.342 c 0,53.136 -43.072,96.304 -96.304,96.304 z"
           style="fill:none;stroke:#231f20;stroke-width:30;stroke-linecap:butt;stroke-linejoin:miter;stroke-miterlimit:10;stroke-dasharray:none;stroke-opacity:1"
           id="path30"
           inkscape:connector-curvature="0" /><g
           id="g32"
           transform="translate(1264.7595,494.3289)"><path
             d="m 0,0 0,96.304 -288.911,0 0,-96.304 c -53.232,0 -96.304,-43.075 -96.304,-96.304 l 481.519,0 C 96.304,-43.075 53.232,0 0,0"
             style="fill:#ffffff;fill-opacity:1;fill-rule:nonzero;stroke:none"
             id="path34"
             inkscape:connector-curvature="0" /></g><g
           id="g36"
           transform="translate(1264.7595,494.3289)"><path
             d="m 0,0 0,96.304 -288.911,0 0,-96.304 c -53.232,0 -96.304,-43.075 -96.304,-96.304 l 481.519,0 C 96.304,-43.075 53.232,0 0,0 Z"
             style="fill:none;stroke:#231f20;stroke-width:30;stroke-linecap:butt;stroke-linejoin:miter;stroke-miterlimit:10;stroke-dasharray:none;stroke-opacity:1"
             id="path38"
             inkscape:connector-curvature="0" /></g><g
           id="g40"
           transform="translate(1120.3038,735.0885)"><path
             d="m 0,0 c -26.616,0 -48.152,21.536 -48.152,48.152 0,26.616 21.536,48.152 48.152,48.152 26.616,0 48.152,-21.536 48.152,-48.152 C 48.152,21.536 26.616,0 0,0 m 577.823,1011.19 -1155.646,0 c -53.232,0 -96.304,-43.168 -96.304,-96.304 l 96.304,0 288.912,0 866.734,0 0,-770.43 -866.734,0 0,-192.608 866.734,0 c 53.232,0 96.304,43.075 96.304,96.304 l 0,866.734 c 0,53.136 -43.072,96.304 -96.304,96.304"
             style="fill:#ffffff;fill-opacity:1;fill-rule:nonzero;stroke:none"
             id="path42"
             inkscape:connector-curvature="0" /></g><g
           id="g44"
           transform="translate(1120.3038,735.0885)"><path
             d="m 0,0 c -26.616,0 -48.152,21.536 -48.152,48.152 0,26.616 21.536,48.152 48.152,48.152 26.616,0 48.152,-21.536 48.152,-48.152 C 48.152,21.536 26.616,0 0,0 Z m 577.823,1011.19 -1155.646,0 c -53.232,0 -96.304,-43.168 -96.304,-96.304 l 96.304,0 288.912,0 866.734,0 0,-770.43 -866.734,0 0,-192.608 866.734,0 c 53.232,0 96.304,43.075 96.304,96.304 l 0,866.734 c 0,53.136 -43.072,96.304 -96.304,96.304 z"
             style="fill:none;stroke:#231f20;stroke-width:30;stroke-linecap:butt;stroke-linejoin:miter;stroke-miterlimit:10;stroke-dasharray:none;stroke-opacity:1"
             id="path46"
             inkscape:connector-curvature="0" /></g><g
           id="g48"
           transform="translate(1360.6082,1334.7601)"><path
             d="m 0,0 -169.849,0 0,169.849 -140.911,0 0,-169.849 -169.849,0 0,-140.912 169.849,0 0,-169.848 140.911,0 0,169.848 169.849,0 L 0,0 Z"
             style="fill:#f1f1f2;fill-opacity:1;fill-rule:nonzero;stroke:none"
             id="path50"
             inkscape:connector-curvature="0" /></g><g
           id="g52"
           transform="translate(1360.6082,1334.7601)"><path
             d="m 0,0 -169.849,0 0,169.849 -140.911,0 0,-169.849 -169.849,0 0,-140.912 169.849,0 0,-169.848 140.911,0 0,169.848 169.849,0 L 0,0 Z"
             style="fill:none;stroke:#000000;stroke-width:30;stroke-linecap:butt;stroke-linejoin:miter;stroke-miterlimit:10;stroke-dasharray:none;stroke-opacity:1"
             id="path54"
             inkscape:connector-curvature="0" /></g></g></g></g></svg>