<?xml version="1.0" standalone="no"?>
<!DOCTYPE svg PUBLIC "-//W3C//DTD SVG 20010904//EN"
 "http://www.w3.org/TR/2001/REC-SVG-20010904/DTD/svg10.dtd">
<svg version="1.0" xmlns="http://www.w3.org/2000/svg"
 width="700.000000pt" height="700.000000pt" viewBox="0 0 700.000000 700.000000"
 preserveAspectRatio="xMidYMid meet">
<metadata>
Created by potrace 1.11, written by Peter Selinger 2001-2013
</metadata>
<g transform="translate(0.000000,700.000000) scale(0.100000,-0.100000)"
fill="#000000" stroke="none">
<path d="M895 6986 c-404 -64 -735 -350 -849 -736 -47 -156 -46 -88 -46 -2750
0 -2662 -1 -2594 46 -2750 98 -332 372 -606 704 -704 156 -47 88 -46 2750 -46
2662 0 2594 -1 2750 46 332 98 606 372 704 704 47 156 46 88 46 2750 0 2662 1
2594 -46 2750 -98 332 -372 606 -704 704 -157 47 -86 46 -2760 45 -1959 -1
-2533 -4 -2595 -13z m5273 -154 c334 -89 581 -337 664 -667 l23 -90 0 -2575 0
-2575 -22 -88 c-86 -334 -336 -585 -668 -669 l-90 -23 -2575 0 -2575 0 -90 23
c-332 84 -582 335 -668 669 l-22 88 0 2575 0 2575 22 88 c94 369 385 631 761
686 31 5 1205 8 2607 7 l2550 -1 83 -23z"/>
<path d="M1646 6249 c-124 -18 -248 -104 -309 -213 -28 -50 -54 -151 -60 -233
l-4 -53 2328 0 2329 0 0 -1355 0 -1355 -1610 0 -1610 0 2 -432 3 -433 1625 -3
c961 -1 1657 1 1704 7 209 25 362 178 387 389 6 45 8 750 7 1707 -3 1577 -4
1632 -22 1680 -53 137 -142 228 -275 279 l-56 21 -2190 1 c-1204 1 -2217 -2
-2249 -7z m4475 -165 c58 -27 116 -85 143 -143 l21 -46 0 -1680 0 -1680 -21
-45 c-27 -57 -87 -117 -144 -144 l-45 -21 -1607 -3 -1608 -2 0 285 0 285 1610
0 1610 0 0 1505 0 1505 -2321 0 -2320 0 6 23 c23 74 105 152 186 176 22 6 837
9 2239 8 l2205 -2 46 -21z"/>
<path d="M3789 2847 c-187 -53 -248 -290 -107 -424 167 -161 445 -30 426 201
-14 158 -166 265 -319 223z"/>
<path d="M890 5525 c-150 -37 -267 -153 -311 -310 -12 -42 -14 -365 -14 -2080
0 -1965 1 -2032 19 -2084 49 -141 148 -242 284 -288 41 -14 122 -17 607 -20
613 -5 681 -1 780 46 69 32 150 107 187 173 56 101 53 -29 53 2193 l0 2050
-24 58 c-43 109 -139 205 -248 249 l-58 23 -610 2 c-486 1 -621 -1 -665 -12z
m1290 -156 c60 -27 117 -83 146 -144 l24 -50 0 -2026 c0 -2256 6 -2075 -69
-2161 -21 -24 -60 -54 -87 -68 l-49 -25 -610 0 c-601 0 -611 0 -656 21 -58 27
-116 85 -143 143 l-21 46 -3 2015 c-2 2184 -5 2068 50 2150 30 44 87 88 134
105 32 11 155 14 639 14 582 1 601 0 645 -20z"/>
<path d="M920 4930 l0 -250 610 0 610 0 0 250 0 250 -610 0 -610 0 0 -250z"/>
<path d="M922 4218 l3 -253 608 -3 607 -2 0 255 0 255 -610 0 -610 0 2 -252z"/>
<path d="M1085 2319 c-17 -5 -50 -25 -74 -46 -180 -154 -72 -454 163 -453 276
1 347 388 91 496 -38 15 -132 17 -180 3z"/>
<path d="M3520 4995 l0 -315 -317 -2 -318 -3 -3 -337 -2 -338 320 0 320 0 0
-320 0 -320 338 2 337 3 3 318 2 317 315 0 315 0 0 340 0 340 -315 0 -315 0 0
315 0 315 -340 0 -340 0 0 -315z"/>
<path d="M3250 1780 l0 -179 -53 -16 c-109 -32 -210 -118 -258 -220 -28 -59
-43 -121 -52 -217 l-5 -48 974 0 974 0 0 28 c-3 227 -122 397 -322 462 l-38
12 0 179 0 179 -610 0 -610 0 0 -180z m1072 -137 l3 -178 74 -7 c41 -4 93 -17
116 -28 54 -26 113 -84 136 -135 l18 -40 -806 -3 c-443 -1 -808 0 -811 2 -2 3
6 26 19 51 44 88 131 142 248 153 l66 7 3 178 2 177 465 0 465 0 2 -177z"/>
</g>
</svg>
